HIERARCHY
ROOT Hips
{
	OFFSET 0.00000 0.00000 0.00000
	CHANNELS 6 Xposition Yposition Zposition Zrotation Yrotation Xrotation 
	JOINT RightUpLegDummy
	{
		OFFSET 0 0 0
		CHANNELS 3 Zrotation Yrotation Xrotation
		JOINT RightUpLeg
		{
			OFFSET -3.52197 -3.41223 0.04002
			CHANNELS 3 Zrotation Yrotation Xrotation
			JOINT RightLeg
			{
				OFFSET 0.00006 -17.42390 1.60435
				CHANNELS 3 Zrotation Yrotation Xrotation
				JOINT RightFoot
				{
					OFFSET 0.06153 -16.50078 -1.63901
					CHANNELS 3 Zrotation Yrotation Xrotation
					JOINT RightToes
					{
						OFFSET 0.00298 -1.73825 3.34613
						CHANNELS 3 Zrotation Yrotation Xrotation
						End Site
						{
							OFFSET 0.00480 -0.05416 3.85043
						}
					}
				}
			}
		}
	}
	JOINT SpineDummy
	{
		OFFSET 0 0 0
		CHANNELS 3 Zrotation Yrotation Xrotation
		JOINT Spine
		{
			OFFSET 0.00000 4.68130 0.00000
			CHANNELS 3 Zrotation Yrotation Xrotation
			JOINT Spine1
			{
				OFFSET -0.00000 10.10138 0.05002
				CHANNELS 3 Zrotation Yrotation Xrotation
				JOINT HEadDummy
				{
					OFFSET 0 0 0
					CHANNELS 3 Zrotation Yrotation Xrotation
					JOINT Head
					{
						OFFSET -0.00000 3.43865 0.00438
						CHANNELS 3 Zrotation Yrotation Xrotation
						End Site
						{
							OFFSET -0.11417 5.02924 0.98962
						}
					}
				}
				JOINT LeftShoulder1Dummy
				{
					OFFSET 0 0 0
					CHANNELS 3 Zrotation Yrotation Xrotation
					JOINT LeftShoulder1
					{
						OFFSET 3.53937 -0.14262 -0.08662
						CHANNELS 3 Zrotation Yrotation Xrotation
						JOINT LeftArm
						{
							OFFSET 4.04833 -0.00133 0.12681
							CHANNELS 3 Zrotation Yrotation Xrotation
							JOINT LeftForeArm
							{
								OFFSET 10.33880 -0.01036 -0.55515
								CHANNELS 3 Zrotation Yrotation Xrotation
								JOINT LeftHand
								{
									OFFSET 8.69677 0.07543 0.40060
									CHANNELS 3 Zrotation Yrotation Xrotation
									End Site
									{
										OFFSET 5.28377 -0.21905 0.59205
									}
								}
							}
						}
					}
				}
				JOINT RightShoulderDummy
				{
					OFFSET 0 0 0
					CHANNELS 3 Zrotation Yrotation Xrotation
					JOINT RightShoulder
					{
						OFFSET -3.53937 -0.14262 -0.08660
						CHANNELS 3 Zrotation Yrotation Xrotation
						JOINT RightArm
						{
							OFFSET -4.04833 -0.00133 0.12683
							CHANNELS 3 Zrotation Yrotation Xrotation
							JOINT RightForeArm
							{
								OFFSET -10.37987 -0.01039 -0.55511
								CHANNELS 3 Zrotation Yrotation Xrotation
								JOINT RightHand
								{
									OFFSET -8.67398 0.07538 0.40058
									CHANNELS 3 Zrotation Yrotation Xrotation
									End Site
									{
										OFFSET -5.24810 -0.21916 0.59204
									}
								}
							}
						}
					}
				}
			}
		}
	}
	JOINT LeftUpLegDummy
	{
		OFFSET 0 0 0
		CHANNELS 3 Zrotation Yrotation Xrotation
		JOINT LeftUpLeg
		{
			OFFSET 3.52197 -3.41223 0.04002
			CHANNELS 3 Zrotation Yrotation Xrotation
			JOINT LeftLeg
			{
				OFFSET -0.00012 -17.42399 1.60337
				CHANNELS 3 Zrotation Yrotation Xrotation
				JOINT LeftFoot
				{
					OFFSET -0.09972 -16.50070 -1.63802
					CHANNELS 3 Zrotation Yrotation Xrotation
					JOINT LeftToes
					{
						OFFSET -0.01575 -1.73823 3.34611
						CHANNELS 3 Zrotation Yrotation Xrotation
						End Site
						{
							OFFSET 0.03150 -0.01868 3.85031
						}
					}
				}
			}
		}
	}
}
MOTION
Frames: 9
Frame Time: 0.033333
1.3883 40.0307 -4.8127 -2.6504 -10.0414 -1.6531 0.0000 0.0000 0.0000 -0.9259 -1.7839 -2.3579 -1.9318 -4.7186 3.3706 3.0676 -0.3391 1.5983 0.0000 -0.0000 0.0000 0.0000 0.0000 0.0000 1.3493 -0.1987 4.9944 3.3001 -0.7920 -1.4944 -0.0000 0.0000 -0.0000 7.3341 -7.8439 -8.6563 -0.0000 0.0000 -0.0000 -33.6548 -2.4877 2.3776 -43.0627 -15.4654 -20.4175 -8.6730 5.0076 52.7417 16.4782 -2.8873 -1.1546 -0.0000 0.0000 -0.0000 35.1358 5.2165 3.5894 40.2682 4.1037 -16.6643 10.7967 1.4845 21.4981 -12.0080 1.3300 -0.6840 0.0000 0.0000 0.0000 3.4722 3.4392 -0.1400 3.4741 14.3032 9.5825 -0.2039 0.0379 -6.3872 0.0000 0.0000 -0.0000
1.3634 40.0386 -4.8186 -2.6097 -10.1473 -1.7086 0.0000 0.0000 0.0000 -0.9424 -1.8965 -2.2078 -1.8383 -4.5211 3.1346 2.9760 -0.3335 1.6909 0.0000 -0.0000 0.0000 0.0000 0.0000 0.0000 1.2502 -0.1717 4.9809 3.4676 -0.7920 -1.5148 -0.0000 0.0000 -0.0000 7.2064 -7.8249 -8.4373 -0.0000 0.0000 -0.0000 -33.8611 -2.5457 2.4132 -43.0037 -15.4760 -20.1093 -8.8989 5.0157 52.4077 16.3479 -3.1165 -1.1759 -0.0000 0.0000 -0.0000 35.0124 5.2010 3.5721 40.2381 4.0323 -17.0568 10.6645 0.7831 22.1829 -12.0324 1.6479 -0.7160 0.0000 0.0000 0.0000 3.4201 3.3827 -0.0298 3.5732 14.4895 9.4886 -0.2328 0.0397 -6.3153 0.0000 0.0000 -0.0000
1.2986 40.0492 -4.8286 -2.5318 -10.3475 -1.7947 0.0000 0.0000 0.0000 -0.9311 -1.9929 -2.0322 -1.7283 -4.2378 2.8795 2.8272 -0.3186 1.7776 0.0000 -0.0000 0.0000 0.0000 0.0000 0.0000 1.0804 -0.1349 4.8747 3.6479 -0.7936 -1.4662 -0.0000 0.0000 -0.0000 7.0474 -7.6937 -8.1586 -0.0000 0.0000 -0.0000 -34.1243 -2.6090 2.4546 -43.0141 -15.5590 -19.3982 -9.3555 5.0312 51.7528 16.3079 -3.3350 -1.2022 -0.0000 0.0000 -0.0000 34.9290 5.1895 3.5600 40.1398 3.8046 -17.7267 10.4297 -0.1864 23.0617 -11.9213 1.8710 -0.7305 0.0000 0.0000 0.0000 3.3889 3.3294 0.1485 3.6911 14.7364 9.3517 -0.3395 0.0466 -6.2082 0.0000 0.0000 -0.0000
1.2143 40.0569 -4.8328 -2.4371 -10.4791 -1.8723 0.0000 0.0000 0.0000 -0.8953 -2.0087 -1.9383 -1.6895 -4.0923 2.8133 2.6756 -0.3008 1.7596 0.0000 -0.0000 0.0000 0.0000 0.0000 0.0000 0.9809 -0.1605 4.7117 3.6058 -0.8143 -1.3771 -0.0000 0.0000 -0.0000 7.0479 -7.6670 -7.9509 -0.0000 0.0000 -0.0000 -34.1630 -2.5879 2.4486 -43.2827 -15.7503 -18.5741 -9.8200 5.0498 50.9814 16.5411 -3.3436 -1.2212 -0.0000 0.0000 -0.0000 34.9741 5.1952 3.5663 40.0306 3.3971 -18.1947 10.2617 -0.6313 23.4310 -11.5913 1.7541 -0.6990 0.0000 0.0000 0.0000 3.4242 3.3488 0.3415 3.6740 14.8201 9.1689 -0.4763 0.0554 -6.1139 0.0000 0.0000 -0.0000
1.1366 40.0613 -4.8358 -2.3455 -10.4761 -1.9224 0.0000 0.0000 0.0000 -0.8662 -1.9997 -1.9278 -1.6949 -4.1158 2.8981 2.5234 -0.2817 1.6733 0.0000 -0.0000 0.0000 0.0000 0.0000 0.0000 0.9803 -0.2525 4.5482 3.4386 -0.8837 -1.2816 -0.0000 0.0000 -0.0000 7.1815 -7.7398 -7.7897 -0.0000 0.0000 -0.0000 -34.0861 -2.5530 2.4298 -43.7438 -15.9844 -17.8913 -10.1802 5.0734 50.0644 16.7606 -3.2826 -1.2296 -0.0000 0.0000 -0.0000 34.9536 5.1898 3.5623 39.9814 3.0216 -18.3575 10.2017 -0.6503 23.4995 -11.2157 1.5763 -0.6597 0.0000 0.0000 0.0000 3.4888 3.4181 0.4867 3.5522 14.7524 8.9808 -0.5629 0.0610 -6.0424 0.0000 0.0000 -0.0000
1.0692 40.0621 -4.8502 -2.2623 -10.4575 -1.9694 0.0000 0.0000 0.0000 -0.8411 -1.9840 -1.9792 -1.7101 -4.1627 3.0714 2.3781 -0.2635 1.5783 0.0000 -0.0000 0.0000 0.0000 0.0000 0.0000 0.9645 -0.3265 4.4062 3.3965 -0.9577 -1.1384 -0.0000 0.0000 -0.0000 7.2687 -7.6951 -7.6707 -0.0000 0.0000 -0.0000 -34.1587 -2.5867 2.4479 -44.2074 -16.2012 -17.3030 -10.4868 5.0998 49.0549 16.6456 -3.3323 -1.2276 -0.0000 0.0000 -0.0000 34.7860 5.1612 3.5358 39.9005 2.8953 -18.4239 10.1756 -0.7130 23.6483 -11.1108 1.5746 -0.6533 0.0000 0.0000 0.0000 3.5265 3.4625 0.5502 3.4989 14.7224 8.9119 -0.5921 0.0629 -5.9950 0.0000 0.0000 -0.0000
1.0025 40.0591 -4.8758 -2.1852 -10.5391 -2.0491 0.0000 0.0000 0.0000 -0.7860 -1.9163 -2.0590 -1.7605 -4.1394 3.3173 2.2687 -0.2494 1.4795 0.0000 -0.0000 0.0000 0.0000 0.0000 0.0000 0.8993 -0.3329 4.3151 3.4707 -0.9827 -0.9658 -0.0000 0.0000 -0.0000 7.2469 -7.5349 -7.6150 -0.0000 0.0000 -0.0000 -34.3381 -2.6164 2.4709 -44.6636 -16.4584 -16.6212 -10.8133 5.1197 48.2342 16.3623 -3.4746 -1.2251 -0.0000 0.0000 -0.0000 34.6928 5.1462 3.5215 39.6143 2.9348 -18.4675 10.1687 -0.8324 23.7335 -11.3488 1.6488 -0.6744 0.0000 0.0000 0.0000 3.5234 3.4369 0.5682 3.6135 14.8283 9.0144 -0.6403 0.0660 -5.9806 0.0000 0.0000 -0.0000
0.9366 40.0536 -4.8990 -2.1298 -10.6728 -2.1464 0.0000 0.0000 0.0000 -0.6942 -1.8040 -2.1180 -1.8401 -4.1029 3.5612 2.1897 -0.2389 1.3746 0.0000 -0.0000 0.0000 0.0000 0.0000 0.0000 0.9188 -0.3222 4.2815 3.4299 -0.9686 -0.8506 -0.0000 0.0000 -0.0000 7.2439 -7.4459 -7.5808 -0.0000 0.0000 -0.0000 -34.3848 -2.5711 2.4555 -45.2174 -16.8194 -15.8705 -11.1463 5.1302 47.7242 16.2870 -3.6458 -1.2422 -0.0000 0.0000 -0.0000 34.7902 5.1643 3.5375 39.1743 2.9682 -18.4142 10.2066 -0.7691 23.5892 -11.6271 1.6559 -0.6920 0.0000 0.0000 0.0000 3.5207 3.3776 0.5792 3.8129 14.9643 9.2049 -0.7670 0.0718 -6.0108 0.0000 0.0000 -0.0000
0.8756 40.0493 -4.9135 -2.1083 -10.7869 -2.2291 0.0000 0.0000 0.0000 -0.5985 -1.7412 -2.1122 -1.8616 -4.0689 3.6825 2.0822 -0.2258 1.2955 0.0000 -0.0000 0.0000 0.0000 0.0000 0.0000 1.0726 -0.3404 4.2398 3.2471 -0.9595 -0.7715 -0.0000 0.0000 -0.0000 7.3561 -7.4649 -7.4934 -0.0000 0.0000 -0.0000 -34.3130 -2.5436 2.4400 -45.8208 -17.1848 -15.2411 -11.4320 5.1374 47.3431 16.3827 -3.8606 -1.2786 -0.0000 0.0000 -0.0000 34.8270 5.1711 3.5435 38.8727 3.0968 -18.3715 10.2220 -0.6588 23.5185 -11.6852 1.6536 -0.6953 0.0000 0.0000 0.0000 3.5703 3.3704 0.6049 3.9476 15.0237 9.3645 -0.9418 0.0803 -6.0776 0.0000 0.0000 -0.0000
